<?xml version="1.0" standalone="no"?><!DOCTYPE svg PUBLIC "-//W3C//DTD SVG 20010904//EN"
 "http://www.w3.org/TR/2001/REC-SVG-20010904/DTD/svg10.dtd"><svg version="1.0" xmlns="http://www.w3.org/2000/svg" width="20.000000pt" height="20.000000pt" viewBox="0 0 512.000000 512.000000" preserveAspectRatio="xMidYMid meet"><g transform="translate(0.000000,512.000000) scale(0.100000,-0.100000)" fill="#000000" stroke="none"><path d="M2450 4600 l0 -360 110 0 110 0 0 360 0 360 -110 0 -110 0 0 -360z"/><path d="M4115 4270 l-440 -440 78 -77 77 -78 435 435 c239 239 435 440 435
445 0 6 -33 43 -73 83 l-72 72 -440 -440z"/><path d="M487 4632 c-37 -37 -67 -72 -67 -77 0 -6 196 -206 435 -445 l435
-435 77 78 78 77 -435 435 c-239 239 -440 435 -445 435 -6 0 -41 -30 -78 -68z"/><path d="M2396 3940 c-319 -40 -589 -172 -816 -400 -165 -164 -269 -332 -341
-550 -211 -645 75 -1342 682 -1659 480 -251 1040 -202 1482 129 456 343 652
934 492 1485 -144 496 -554 870 -1068 976 -115 23 -323 33 -431 19z m350 -225
c511 -88 893 -471 974 -977 19 -120 8 -340 -23 -460 -94 -358 -351 -653 -687
-791 -154 -63 -252 -81 -445 -81 -178 -1 -229 6 -370 50 -415 131 -724 494
-795 936 -19 119 -8 340 23 459 69 264 216 484 433 648 133 102 360 196 529
220 98 14 266 12 361 -4z"/><path d="M160 2560 l0 -110 360 0 360 0 0 110 0 110 -360 0 -360 0 0 -110z"/><path d="M4240 2560 l0 -110 360 0 360 0 0 110 0 110 -360 0 -360 0 0 -110z"/><path d="M852 1007 c-237 -237 -432 -437 -432 -442 0 -13 132 -145 145 -145 6
0 206 196 445 435 l435 435 -75 75 c-41 41 -77 75 -80 75 -3 0 -200 -195 -438
-433z"/><path d="M3750 1365 l-75 -75 435 -435 c239 -239 440 -435 445 -435 13 0 145
132 145 145 0 10 -861 875 -870 875 -3 0 -39 -34 -80 -75z"/><path d="M2450 520 l0 -360 110 0 110 0 0 360 0 360 -110 0 -110 0 0 -360z"/></g></svg>