<?xml version="1.0" standalone="no"?><!DOCTYPE svg PUBLIC "-//W3C//DTD SVG 20010904//EN"
 "http://www.w3.org/TR/2001/REC-SVG-20010904/DTD/svg10.dtd"><svg version="1.0" xmlns="http://www.w3.org/2000/svg" width="512.000000pt" height="512.000000pt" viewBox="0 0 512.000000 512.000000" preserveAspectRatio="xMidYMid meet"><g transform="translate(0.000000,512.000000) scale(0.100000,-0.100000)" fill="" stroke=""><path d="M1079 5110 c-158 -27 -391 -116 -697 -267 -231 -115 -289 -156 -335
-241 -46 -85 -51 -141 -27 -315 62 -445 199 -870 431 -1337 429 -861 1124
-1648 1940 -2197 628 -423 1302 -683 1929 -744 112 -11 131 -10 184 5 146 43
183 89 326 408 260 580 311 750 276 917 -27 127 -91 209 -232 297 -41 25 -192
101 -337 169 -314 146 -412 195 -577 288 -181 101 -221 102 -340 7 -128 -103
-250 -166 -402 -207 -97 -27 -337 -24 -443 5 -216 58 -383 157 -556 327 -245
242 -372 543 -356 843 12 216 83 390 239 578 62 76 82 121 72 166 -3 15 -69
155 -148 310 -78 156 -180 364 -226 462 -165 350 -274 469 -475 521 -62 16
-168 18 -246 5z m208 -331 c77 -37 128 -119 283 -454 56 -121 135 -286 176
-366 l75 -146 -54 -79 c-155 -225 -222 -442 -222 -714 1 -230 39 -390 146
-605 79 -159 171 -287 300 -415 398 -397 932 -544 1404 -386 122 41 200 79
312 152 l83 53 162 -85 c90 -47 255 -128 368 -181 294 -137 412 -198 445 -233
26 -27 30 -38 28 -83 -2 -67 -39 -182 -118 -371 -80 -191 -233 -528 -245 -540
-11 -11 -232 17 -392 50 -1635 342 -3258 1961 -3642 3634 -37 165 -79 427 -70
442 9 14 310 162 463 228 261 111 411 141 498 99z"/></g></svg>