<?xml version="1.0" standalone="no"?><!DOCTYPE svg PUBLIC "-//W3C//DTD SVG 20010904//EN"
 "http://www.w3.org/TR/2001/REC-SVG-20010904/DTD/svg10.dtd"><svg version="1.0" xmlns="http://www.w3.org/2000/svg" width="40.000000pt" height="40.000000pt" viewBox="0 0 512.000000 512.000000" preserveAspectRatio="xMidYMid meet"><g transform="translate(0.000000,512.000000) scale(0.100000,-0.100000)" fill="" stroke="none"><path d="M123 3573 c4 -173 9 -229 31 -329 136 -639 496 -1241 966 -1617 257
-207 590 -368 897 -436 221 -49 269 -53 720 -58 l433 -5 2 292 3 293 82 -62
c150 -113 266 -254 354 -433 l43 -88 673 0 673 0 0 238 0 237 -58 81 c-118
168 -268 322 -590 604 l-82 72 49 61 c133 169 286 451 355 657 34 102 176 654
176 685 0 13 -67 15 -607 13 l-608 -3 -62 -179 c-90 -263 -214 -498 -356 -680
l-47 -59 0 461 0 462 -710 0 -710 0 0 -247 0 -248 100 -100 100 -101 -2 -199
-3 -200 -82 81 c-214 212 -323 509 -323 883 l0 131 -711 0 -711 0 5 -207z
m1045 -311 c67 -343 241 -653 476 -850 159 -134 272 -194 532 -282 97 -33 179
-60 180 -60 2 0 4 264 4 587 l0 587 -62 63 -62 63 262 0 262 0 0 -510 0 -510
248 0 248 0 65 68 c253 260 421 512 559 837 l47 110 202 3 c181 2 201 1 201
-14 0 -34 -73 -233 -125 -342 -98 -204 -200 -347 -385 -536 l-125 -128 120
-115 c66 -63 217 -201 335 -307 118 -106 255 -235 304 -287 l90 -94 -320 -3
c-296 -2 -320 -1 -332 15 -113 155 -150 202 -227 278 -107 106 -214 187 -348
261 l-97 54 -230 0 -230 0 0 -305 0 -305 -172 0 c-270 0 -438 26 -659 100
-578 193 -1056 708 -1295 1394 -38 108 -84 282 -84 315 0 21 3 21 298 21 l299
0 21 -108z"/></g></svg>