<svg xmlns="http://www.w3.org/2000/svg" xmlns:xlink="http://www.w3.org/1999/xlink"><symbol id="arrow-left" viewBox="0 0 18 34"><g fill="none">
<path d="M17 33L0.999999 17L17 0.999998" stroke=""/>
</g></symbol><symbol id="arrow-right" viewBox="0 0 18 34"><g fill="none">
<path d="M1 1L17 17L1 33" stroke=""/>
</g></symbol><symbol id="close" viewBox="0 0 48 48"><g fill="none">
  <rect width="48" height="48" rx="24" fill="#C6C6C6"/>
  <path d="M33.3334 16.5467L31.4534 14.6667L24.0001 22.12L16.5467 14.6667L14.6667 16.5467L22.1201 24L14.6667 31.4534L16.5467 33.3334L24.0001 25.88L31.4534 33.3334L33.3334 31.4534L25.8801 24L33.3334 16.5467Z" fill="#292929"/>
</g></symbol><symbol id="github" viewBox="0 0 512.000000 512.000000" preserveAspectRatio="xMidYMid meet">

<g transform="translate(0.000000,512.000000) scale(0.100000,-0.100000)" fill="#000000" stroke="none">
<path d="M2380 5114 c-19 -2 -78 -9 -130 -15 -216 -24 -518 -107 -710 -195
-324 -148 -567 -319 -815 -575 -887 -913 -968 -2337 -190 -3334 411 -526 982
-861 1650 -967 201 -32 549 -32 750 0 556 88 1043 333 1433 723 836 832 990
2107 379 3124 -183 306 -474 610 -772 810 -323 216 -680 353 -1070 411 -96 14
-453 27 -525 18z m510 -319 c366 -56 718 -206 1029 -438 116 -86 334 -302 418
-412 201 -267 340 -550 413 -844 211 -845 -76 -1715 -751 -2277 -164 -138
-394 -274 -601 -357 l-88 -35 0 341 c0 374 -9 466 -54 578 -14 34 -24 64 -23
65 1 1 44 16 96 33 482 161 790 500 882 971 20 98 17 376 -5 480 -35 173 -92
319 -176 449 l-51 80 12 63 c18 94 16 338 -4 426 -35 154 -109 250 -212 273
-130 29 -332 -37 -590 -191 l-80 -48 -115 24 c-297 62 -642 57 -912 -12 l-56
-14 -77 45 c-114 67 -251 135 -329 161 -103 35 -224 50 -281 34 -95 -27 -168
-125 -202 -272 -20 -88 -22 -332 -4 -426 l12 -63 -51 -80 c-84 -130 -141 -276
-176 -449 -22 -104 -25 -382 -5 -480 92 -471 400 -810 882 -971 52 -17 95 -32
96 -33 1 -1 -8 -29 -22 -61 -13 -33 -30 -91 -38 -130 -13 -68 -15 -70 -53 -84
-63 -23 -191 -19 -240 6 -62 33 -101 69 -146 137 -107 158 -190 240 -303 299
-62 33 -155 57 -215 57 l-46 0 13 -137 c6 -76 12 -144 13 -150 0 -7 10 -13 23
-13 41 0 121 -46 167 -96 25 -27 67 -82 94 -122 27 -41 77 -100 110 -133 128
-127 347 -194 524 -160 l42 8 0 -203 0 -202 -87 35 c-970 390 -1547 1384
-1398 2409 56 384 208 737 458 1069 84 110 302 326 418 412 355 266 726 409
1184 457 82 8 404 -4 505 -19z m-1380 -919 c70 -22 156 -64 275 -135 61 -36
123 -72 139 -78 42 -19 111 -16 232 11 175 39 289 49 473 43 126 -5 195 -12
286 -32 151 -34 240 -41 280 -23 17 7 81 44 144 82 131 78 249 132 308 142
l41 6 9 -48 c13 -79 7 -282 -11 -350 -30 -115 -22 -151 54 -254 65 -88 124
-213 157 -335 23 -88 27 -119 27 -255 1 -164 -17 -265 -66 -378 -108 -247
-330 -442 -612 -536 -106 -35 -181 -52 -366 -82 -85 -14 -155 -26 -157 -27 -3
-4 71 -116 157 -237 84 -118 105 -160 119 -235 7 -36 11 -206 11 -435 l0 -376
-72 -12 c-114 -19 -263 -31 -378 -31 -115 0 -264 12 -377 31 l-73 12 0 370 c0
207 5 399 10 435 13 78 34 120 120 241 86 121 160 233 157 237 -2 1 -72 13
-157 27 -185 30 -260 47 -366 82 -282 94 -504 289 -612 536 -49 113 -67 214
-66 378 0 136 4 167 27 255 33 122 92 247 157 335 76 103 84 139 54 254 -18
68 -24 271 -11 349 9 53 15 55 87 33z"/>
</g>
</symbol><symbol id="gmail" viewBox="0 0 512.000000 512.000000" preserveAspectRatio="xMidYMid meet">

<g transform="translate(0.000000,512.000000) scale(0.100000,-0.100000)" fill="#000000" stroke="none">
<path d="M430 4524 c-209 -45 -385 -227 -420 -434 -8 -46 -10 -508 -8 -1570
l3 -1505 26 -67 c73 -186 219 -314 404 -353 105 -22 4145 -22 4250 0 188 40
343 178 407 363 l23 67 0 1535 0 1535 -23 67 c-64 185 -219 323 -407 363 -103
22 -4155 21 -4255 -1z m1215 -1011 c499 -439 911 -798 915 -798 5 0 417 359
917 799 l908 798 125 -5 c150 -7 202 -22 269 -83 52 -47 105 -138 99 -172 -3
-19 -2300 -2072 -2318 -2072 -16 0 -2315 2053 -2318 2071 -5 29 33 104 78 153
73 79 146 103 321 105 l97 1 907 -797z m2375 793 c0 -7 -1452 -1281 -1460
-1281 -8 0 -1460 1274 -1460 1281 0 2 657 4 1460 4 803 0 1460 -2 1460 -4z
m-3477 -850 l267 -238 0 -1205 0 -1206 -162 6 c-117 3 -176 10 -210 22 -65 23
-141 94 -175 163 l-28 57 -3 1339 -2 1340 22 -20 c13 -12 143 -128 291 -258z
m4345 -1326 l-3 -1075 -28 -57 c-34 -69 -110 -140 -175 -163 -34 -12 -93 -19
-209 -22 l-163 -6 0 1206 0 1205 288 255 287 256 3 -262 c1 -144 1 -746 0
-1337z m-3066 187 c400 -356 732 -647 738 -647 8 0 1185 1040 1488 1313 l22
20 0 -1096 0 -1097 -1510 0 -1510 0 0 1097 0 1096 23 -20 c12 -11 349 -311
749 -666z"/>
</g>
</symbol><symbol id="icon-burger" viewBox="0 0 24 14"><g fill="">
<path d="M0 1H24M0 7H24M0 13H24" stroke="" stroke-width="2"/>
</g></symbol><symbol id="icon-close" viewBox="0 0 15 15"><g fill="">
<path d="M1 1L7.5 7.5M14 14L7.5 7.5M7.5 7.5L14 1L1 14" stroke="" stroke-width="2"/>
</g></symbol><symbol id="telegram" viewBox="0 0 512.000000 512.000000" preserveAspectRatio="xMidYMid meet">

<g transform="translate(0.000000,512.000000) scale(0.100000,-0.100000)" fill="#000000" stroke="none">
<path d="M4860 4841 c-86 -27 -4742 -1887 -4772 -1907 -64 -41 -99 -136 -79
-211 13 -49 56 -106 96 -127 17 -9 306 -122 644 -251 338 -129 616 -236 618
-238 2 -2 82 -302 178 -666 96 -364 180 -671 186 -684 49 -96 175 -139 269
-92 14 7 182 126 373 264 l349 250 91 -63 c319 -220 1190 -807 1218 -822 22
-12 56 -18 96 -19 52 0 68 4 105 30 26 18 52 48 65 75 30 60 827 4236 820
4292 -16 120 -144 204 -257 169z m-900 -835 c-36 -35 -488 -469 -1005 -966
-1094 -1049 -1090 -1046 -1100 -1090 -4 -17 -10 -28 -14 -23 -4 4 -32 100 -61
212 -57 215 -80 265 -138 295 -16 8 -212 85 -437 171 -225 86 -415 160 -423
164 -10 6 277 124 879 364 492 196 1220 486 1619 646 399 159 729 290 735 290
5 1 -19 -28 -55 -63z m628 -3 c-5 -27 -143 -751 -307 -1611 -164 -859 -300
-1565 -303 -1567 -7 -8 -1608 1078 -1605 1087 3 10 2210 2137 2218 2137 3 1 2
-20 -3 -46z m-2444 -2433 c118 -80 215 -147 215 -150 0 -9 -320 -232 -325
-227 -3 3 -37 124 -75 269 -38 144 -72 272 -76 283 -5 18 -3 17 20 -5 14 -14
122 -90 241 -170z"/>
</g>
</symbol><symbol id="vk" viewBox="0 0 512.000000 512.000000" preserveAspectRatio="xMidYMid meet">

<g transform="translate(0.000000,512.000000) scale(0.100000,-0.100000)" fill="#000000" stroke="none">
<path d="M123 3573 c4 -173 9 -229 31 -329 136 -639 496 -1241 966 -1617 257
-207 590 -368 897 -436 221 -49 269 -53 720 -58 l433 -5 2 292 3 293 82 -62
c150 -113 266 -254 354 -433 l43 -88 673 0 673 0 0 238 0 237 -58 81 c-118
168 -268 322 -590 604 l-82 72 49 61 c133 169 286 451 355 657 34 102 176 654
176 685 0 13 -67 15 -607 13 l-608 -3 -62 -179 c-90 -263 -214 -498 -356 -680
l-47 -59 0 461 0 462 -710 0 -710 0 0 -247 0 -248 100 -100 100 -101 -2 -199
-3 -200 -82 81 c-214 212 -323 509 -323 883 l0 131 -711 0 -711 0 5 -207z
m1045 -311 c67 -343 241 -653 476 -850 159 -134 272 -194 532 -282 97 -33 179
-60 180 -60 2 0 4 264 4 587 l0 587 -62 63 -62 63 262 0 262 0 0 -510 0 -510
248 0 248 0 65 68 c253 260 421 512 559 837 l47 110 202 3 c181 2 201 1 201
-14 0 -34 -73 -233 -125 -342 -98 -204 -200 -347 -385 -536 l-125 -128 120
-115 c66 -63 217 -201 335 -307 118 -106 255 -235 304 -287 l90 -94 -320 -3
c-296 -2 -320 -1 -332 15 -113 155 -150 202 -227 278 -107 106 -214 187 -348
261 l-97 54 -230 0 -230 0 0 -305 0 -305 -172 0 c-270 0 -438 26 -659 100
-578 193 -1056 708 -1295 1394 -38 108 -84 282 -84 315 0 21 3 21 298 21 l299
0 21 -108z"/>
</g>
</symbol><symbol id="whatsapp" viewBox="0 0 512.000000 512.000000" preserveAspectRatio="xMidYMid meet">

<g transform="translate(0.000000,512.000000) scale(0.100000,-0.100000)" fill="#000000" stroke="none">
<path d="M2330 5110 c-494 -48 -950 -230 -1350 -538 -195 -150 -448 -432 -594
-662 -63 -99 -186 -351 -230 -471 -204 -556 -204 -1204 -1 -1755 37 -101 150
-339 203 -429 l29 -50 -143 -519 c-79 -286 -144 -532 -144 -547 0 -39 38 -79
80 -85 27 -4 156 32 539 151 277 85 509 155 516 155 7 0 73 -31 146 -69 638
-331 1389 -380 2058 -135 120 44 372 167 471 230 321 204 620 503 824 824 63
99 186 351 230 471 49 134 102 340 128 499 18 113 21 176 21 380 0 278 -15
409 -78 649 -48 180 -92 297 -180 476 -132 269 -269 460 -489 681 -221 220
-412 357 -681 489 -246 121 -474 193 -740 235 -147 23 -475 34 -615 20z m615
-219 c512 -88 948 -319 1310 -692 345 -356 560 -785 642 -1284 26 -156 26
-554 0 -710 -82 -499 -297 -928 -642 -1284 -362 -373 -800 -605 -1310 -692
-155 -27 -461 -36 -617 -20 -350 38 -658 138 -969 317 -42 24 -87 44 -100 44
-13 0 -223 -61 -467 -136 -243 -75 -445 -135 -447 -133 -2 2 53 204 121 449
86 308 124 456 121 480 -3 19 -25 69 -51 111 -165 273 -281 613 -322 949 -22
178 -15 482 15 655 83 485 296 903 636 1254 402 414 874 643 1475 715 19 2
136 3 260 1 172 -2 253 -8 345 -24z"/>
<path d="M1475 4150 c-122 -13 -148 -24 -200 -82 -227 -253 -367 -613 -352
-908 9 -176 44 -298 143 -511 263 -561 690 -1048 1174 -1336 289 -172 568
-264 896 -294 607 -55 985 187 1120 719 26 102 30 153 14 182 -6 10 -72 56
-148 101 -75 46 -217 134 -316 197 -98 63 -202 125 -230 138 -62 29 -151 32
-203 7 -36 -17 -44 -26 -144 -161 -66 -89 -219 -256 -252 -273 -23 -13 -52 -2
-162 60 -239 134 -566 394 -727 576 -120 137 -208 280 -208 341 0 8 34 54 75
102 132 153 180 279 150 395 -36 140 -275 603 -359 696 -44 49 -132 65 -271
51z m185 -272 c27 -45 96 -174 152 -285 121 -241 125 -263 68 -357 -19 -32
-72 -98 -116 -147 -88 -95 -97 -116 -84 -194 47 -279 385 -657 869 -973 225
-148 369 -210 443 -193 98 23 244 152 384 340 l89 119 33 -13 c18 -8 112 -65
210 -128 97 -62 218 -137 267 -167 50 -29 92 -55 95 -57 18 -16 -81 -278 -130
-341 -64 -83 -136 -143 -224 -186 -119 -59 -200 -77 -373 -83 -505 -19 -984
177 -1420 583 -298 277 -601 718 -739 1076 -100 258 -83 509 54 786 41 83 148
246 180 275 18 16 53 23 139 25 l52 2 51 -82z"/>
</g>
</symbol></svg>