<?xml version="1.0" standalone="no"?>
<!DOCTYPE svg PUBLIC "-//W3C//DTD SVG 20010904//EN"
 "http://www.w3.org/TR/2001/REC-SVG-20010904/DTD/svg10.dtd">
<svg version="1.0" xmlns="http://www.w3.org/2000/svg"
 width="20.000000pt" height="20.000000pt" viewBox="0 0 512.000000 512.000000"
 preserveAspectRatio="xMidYMid meet">

<g transform="translate(0.000000,512.000000) scale(0.100000,-0.100000)"
fill="#000000" stroke="none">
<path d="M3610 4933 c-33 -12 -55 -43 -111 -155 -33 -65 -65 -118 -72 -118
-42 -1 -260 -40 -271 -49 -21 -18 -39 -68 -32 -93 3 -13 50 -67 104 -121 l99
-98 -24 -132 c-19 -107 -21 -137 -12 -160 12 -28 54 -57 85 -57 9 0 71 28 138
62 l123 61 123 -63 c112 -57 127 -62 159 -54 23 6 41 19 53 40 18 30 18 35 -4
167 l-22 137 103 105 c100 102 103 106 98 141 -11 69 -33 79 -225 105 l-93 12
-59 116 c-32 64 -66 124 -76 133 -22 19 -62 29 -84 21z m73 -246 c50 -105 76
-132 144 -141 27 -4 77 -12 112 -18 l63 -10 -86 -82 c-83 -78 -86 -82 -86
-126 0 -25 7 -80 15 -123 8 -43 15 -83 15 -88 0 -5 -47 16 -105 46 -58 30
-111 55 -119 55 -8 0 -63 -25 -121 -56 l-106 -55 6 33 c27 147 32 197 20 225
-7 15 -47 61 -90 101 -42 39 -74 72 -71 72 31 0 210 32 230 42 19 8 42 42 79
115 28 56 53 103 54 103 2 0 22 -42 46 -93z"/>
<path d="M1990 4484 c-707 -107 -1299 -547 -1616 -1199 -296 -610 -298 -1285
-6 -1880 327 -665 922 -1098 1648 -1201 155 -22 430 -22 585 0 732 103 1341
541 1655 1189 l47 98 -20 27 c-11 15 -29 28 -39 30 -10 1 -59 -23 -109 -54
-453 -288 -1009 -352 -1516 -176 -696 243 -1169 908 -1169 1647 0 542 247
1046 676 1381 76 59 84 69 84 99 0 59 -41 66 -220 39z m-131 -221 c-155 -160
-243 -287 -340 -488 -212 -437 -245 -938 -93 -1394 188 -561 630 -1003 1186
-1185 144 -47 275 -73 441 -88 309 -27 669 39 941 173 44 21 81 37 84 35 2 -3
-17 -37 -43 -77 -207 -320 -479 -563 -810 -724 -307 -149 -573 -210 -920 -209
-336 0 -591 59 -890 204 -414 201 -734 523 -941 945 -495 1013 -56 2255 966
2738 154 73 313 125 509 166 2 1 -38 -43 -90 -96z"/>
<path d="M3060 3603 c-54 -17 -65 -32 -146 -198 l-83 -170 -188 -27 c-183 -26
-189 -27 -215 -57 -30 -33 -36 -77 -17 -113 6 -11 69 -77 139 -147 l129 -126
-29 -170 c-16 -93 -30 -182 -30 -197 0 -17 12 -41 29 -60 47 -53 78 -46 267
53 l162 86 172 -90 173 -90 41 14 c30 10 46 23 59 50 17 35 16 40 -14 218
l-32 183 136 136 c76 77 138 148 142 163 8 34 -17 94 -47 110 -12 7 -104 24
-203 39 l-180 26 -82 166 c-50 103 -91 172 -105 181 -29 19 -59 27 -78 20z
m95 -290 c39 -80 82 -155 96 -167 21 -18 58 -27 190 -46 90 -12 166 -25 168
-27 3 -2 -52 -61 -122 -132 -148 -149 -140 -121 -101 -343 15 -82 24 -151 22
-153 -3 -3 -75 31 -161 75 -127 65 -162 79 -184 74 -16 -4 -91 -40 -167 -81
-77 -40 -144 -73 -148 -73 -5 0 -6 10 -3 23 3 12 16 87 30 167 19 111 23 152
15 176 -6 19 -56 73 -130 143 -66 62 -120 116 -120 120 0 4 73 17 161 29 89
13 175 30 191 38 22 11 46 49 106 169 42 85 79 155 82 154 3 0 37 -66 75 -146z"/>
<path d="M4494 2837 c-16 -14 -49 -65 -73 -114 l-43 -89 -111 -16 c-125 -18
-147 -32 -147 -96 0 -32 10 -46 80 -117 l80 -80 -15 -85 c-21 -120 -20 -152 8
-178 36 -34 77 -28 177 26 l88 47 96 -47 c98 -49 132 -56 167 -37 37 19 41 54
22 172 l-17 110 71 66 c102 95 115 130 65 180 -24 25 -40 30 -131 41 l-103 13
-48 97 c-53 105 -63 117 -107 126 -22 4 -36 0 -59 -19z m140 -295 c15 -11 50
-22 83 -26 103 -13 103 -11 33 -81 l-63 -64 7 -68 c3 -37 9 -80 12 -95 l6 -27
-76 39 c-43 22 -84 40 -92 40 -8 0 -46 -16 -85 -36 -39 -19 -73 -33 -76 -30
-3 3 0 34 6 69 17 100 16 103 -50 172 -67 70 -68 68 31 80 75 9 94 24 136 107
l36 72 34 -66 c18 -36 45 -75 58 -86z"/>
</g>
</svg>
